<svg width="45" height="45" viewBox="0 0 45 45" fill="none" xmlns="http://www.w3.org/2000/svg">
<path d="M3.19067 16.1804L4.05636 18.2835H2.32992L3.19067 16.1804Z" fill="#006FCF"/>
<path d="M23.1276 17.4461C22.9538 17.5513 22.7482 17.5548 22.5019 17.5548H20.9654V16.383H22.5228C22.7432 16.383 22.9732 16.3929 23.1226 16.4782C23.2867 16.555 23.3882 16.7186 23.3882 16.9446C23.3882 17.1751 23.2916 17.3607 23.1276 17.4461Z" fill="#006FCF"/>
<path d="M33.2137 16.1804L34.0889 18.2835H32.3432L33.2137 16.1804Z" fill="#006FCF"/>
<path fill-rule="evenodd" clip-rule="evenodd" d="M0 21.5962H2.16121L2.64849 20.4244H3.73939L4.22538 21.5962H8.47742V20.7003L8.85696 21.6H11.0643L11.4438 20.687V21.5962H22.011L22.006 19.6727H22.2105C22.3536 19.6777 22.3955 19.6909 22.3955 19.9265V21.5962H27.8608V21.1484C28.3016 21.3839 28.9873 21.5962 29.8895 21.5962H32.1888L32.6809 20.4244H33.7718L34.253 21.5962H38.6838V20.4831L39.3548 21.5962H42.9053V14.2383H39.3915V15.1073L38.8994 14.2383H35.2938V15.1073L34.8419 14.2383H29.9716C29.1563 14.2383 28.4397 14.3517 27.8608 14.6679V14.2383H24.4998V14.6679C24.1315 14.342 23.6295 14.2383 23.0714 14.2383H10.7925L9.96861 16.1387L9.12254 14.2383H5.25499V15.1073L4.83013 14.2383H1.53173L0 17.7366V21.5962ZM18.8241 20.56H14.5989V15.2844H18.8241V16.383H15.8638V17.3339H18.7531V18.4153H15.8638V19.4689H18.8241V20.56ZM12.3596 20.56H13.6561V15.2844H11.5503L10.0297 18.8632L8.37447 15.2844H6.31014V20.2793L4.15898 15.2844H2.27979L0.014838 20.56H1.38856L1.8795 19.3833H4.51299L4.99898 20.56H7.5715V16.4245L9.41031 20.56H10.5208L12.3549 16.4281L12.3596 20.56ZM24.7815 16.7052C24.7815 17.5463 24.2185 17.9809 23.8903 18.1114C24.1671 18.2164 24.4034 18.4019 24.516 18.5557C24.6946 18.818 24.7254 19.0524 24.7254 19.5236V20.56H23.4496L23.4449 19.8947C23.4449 19.8625 23.4452 19.8289 23.4455 19.7942C23.4484 19.4868 23.452 19.095 23.2452 18.8669C23.0604 18.6814 22.7787 18.6411 22.3233 18.6411H20.9655V20.56H19.7008V15.2844H22.61C23.2564 15.2844 23.7326 15.3014 24.1415 15.537C24.5417 15.7727 24.7815 16.1167 24.7815 16.7052ZM26.8057 20.56H25.5151V15.2844H26.8057V20.56ZM41.7779 20.56H39.9855L37.5881 16.6003V20.56H35.0122L34.52 19.3833H31.8926L31.4151 20.56H29.935C29.3202 20.56 28.5419 20.4244 28.101 19.9765C27.6565 19.5285 27.4253 18.9218 27.4253 17.9624C27.4253 17.18 27.5635 16.4647 28.1071 15.8995C28.516 15.4785 29.1563 15.2844 30.0279 15.2844H31.2524V16.4148H30.0536C29.5921 16.4148 29.3314 16.4832 29.0804 16.7273C28.8647 16.9494 28.7168 17.3694 28.7168 17.9223C28.7168 18.4875 28.8295 18.8951 29.0646 19.1613C29.2593 19.3701 29.6131 19.4334 29.9461 19.4334H30.5141L32.2967 15.2845H34.1919L36.3333 20.2745V15.2845H38.2591L40.4824 18.9587V15.2845H41.7779V20.56Z" fill="#006FCF"/>
<path d="M27.9171 26.6413C28.1633 26.6413 28.3725 26.6327 28.5417 26.5326C28.7056 26.4338 28.8036 26.2519 28.8036 26.0261C28.8036 25.8003 28.7056 25.6369 28.5417 25.5515C28.3886 25.4609 28.1633 25.4561 27.9381 25.4561H26.3806V26.6413H27.9171Z" fill="#006FCF"/>
<path d="M17.5336 27.0122L19.4755 29.1617V24.931L17.5336 27.0122Z" fill="#006FCF"/>
<path d="M11.3508 28.5419H14.4605L15.9053 26.9938L14.5218 25.456H11.3508V26.4153H14.1276V27.492H11.3508V28.5419Z" fill="#006FCF"/>
<path d="M20.7352 26.7999H22.3698C22.8557 26.7999 23.158 26.5595 23.158 26.1031C23.158 25.6417 22.8411 25.4561 22.3844 25.4561H20.7352V26.7999Z" fill="#006FCF"/>
<path fill-rule="evenodd" clip-rule="evenodd" d="M45 28.9666C44.6928 29.4145 44.0941 29.6416 43.2836 29.6416H40.841V28.51H43.2737C43.515 28.51 43.6839 28.4784 43.7856 28.3794C43.8737 28.2978 43.9351 28.1792 43.9351 28.0352C43.9351 27.8815 43.8737 27.7595 43.7806 27.6863C43.6888 27.6057 43.5552 27.5691 43.335 27.5691C43.2573 27.5665 43.1784 27.5644 43.0987 27.5622C41.9599 27.5315 40.6658 27.4965 40.6658 25.9359C40.6658 25.1705 41.1532 24.3648 42.4805 24.3648H44.9998V23.3149H42.6591C41.9527 23.3149 41.4395 23.4836 41.0761 23.7458V23.3149H37.6138C37.0601 23.3149 36.4102 23.4518 36.1028 23.7458V23.3149H29.92V23.7458C29.428 23.3919 28.5977 23.3149 28.2145 23.3149H24.1363V23.7458C23.747 23.37 22.8813 23.3149 22.3536 23.3149H17.7894L16.745 24.4419L15.7667 23.3149H8.94873V30.678H15.6384L16.7146 29.5332L17.7284 30.678L21.852 30.6816V28.9495H22.2574C22.8045 28.958 23.4498 28.936 24.0191 28.6907V30.6778H27.4203V28.7588H27.5844C27.7938 28.7588 27.8144 28.7674 27.8144 28.976V30.6776H38.1466C38.8025 30.6776 39.4882 30.5102 39.8679 30.2065V30.6776H43.1452C43.8272 30.6776 44.4932 30.5823 45 30.3382V28.9666ZM39.9547 26.8585C40.201 27.1126 40.333 27.4334 40.333 27.9765C40.333 29.1117 39.6216 29.6416 38.3461 29.6416H35.8826V28.51H38.3362C38.5761 28.51 38.7462 28.4784 38.8528 28.3794C38.9398 28.2978 39.0022 28.1792 39.0022 28.0352C39.0022 27.8815 38.9347 27.7594 38.8479 27.6862C38.7511 27.6057 38.6177 27.5691 38.3975 27.5691C38.32 27.5665 38.2413 27.5644 38.1618 27.5622C37.027 27.5314 35.7333 27.4964 35.7333 25.9359C35.7333 25.1705 36.2157 24.3648 37.5417 24.3648H40.0773V25.4879H37.7571C37.5271 25.4879 37.3776 25.4965 37.2504 25.5832C37.1118 25.6687 37.0604 25.7955 37.0604 25.9629C37.0604 26.162 37.1781 26.2974 37.3372 26.356C37.4706 26.4023 37.614 26.4158 37.8294 26.4158L38.5103 26.4341C39.1969 26.4508 39.6682 26.5692 39.9547 26.8585ZM29.3055 27.1893C29.5871 27.2929 29.8172 27.4786 29.9251 27.6323C30.1037 27.8899 30.1296 28.1304 30.1347 28.5955V29.6416H28.8649V28.9814C28.8649 28.9497 28.8652 28.9165 28.8655 28.8821C28.8684 28.5723 28.8721 28.1694 28.6604 27.9485C28.4756 27.7594 28.1939 27.7142 27.7325 27.7142H26.3808V29.6416H25.1099V24.3647H28.03C28.6703 24.3647 29.1367 24.3928 29.5518 24.6137C29.951 24.8541 30.2021 25.1835 30.2021 25.7855C30.2019 26.6277 29.6385 27.0575 29.3055 27.1893ZM30.9034 24.3647H35.1248V25.4559H32.163V26.4153H35.0525V27.4919H32.163V28.5419L35.1248 28.5466V29.6416H30.9034V24.3647ZM24.516 26.1031C24.516 27.569 23.419 27.8716 22.3134 27.8716H20.7352V29.6416H18.2768L16.7194 27.8947L15.1009 29.6416H10.0909V24.3647H15.1779L16.7341 26.0944L18.3429 24.3647H22.3844C23.3882 24.3647 24.516 24.6417 24.516 26.1031Z" fill="#006FCF"/>
<path d="M42.6948 25.4876H45V26.9891C44.9979 26.9865 44.9959 26.9838 44.9938 26.9812L44.9873 26.9726L44.9839 26.9682L44.9837 26.968C44.9546 26.93 44.9259 26.8924 44.8827 26.8585C44.6011 26.5693 44.1394 26.4508 43.4477 26.4338L42.7622 26.4155C42.5515 26.4155 42.4082 26.4019 42.2747 26.3556C42.1108 26.2971 41.9981 26.1617 41.9981 25.9626C41.9981 25.7952 42.0495 25.6684 42.183 25.5829C42.3118 25.4962 42.4647 25.4876 42.6948 25.4876Z" fill="#006FCF"/>
</svg>
