<svg width="44" height="44" viewBox="0 0 44 44" fill="none" xmlns="http://www.w3.org/2000/svg">
<path fill-rule="evenodd" clip-rule="evenodd" d="M0.796478 22.3527C0.796478 12.2124 9.01673 3.99219 19.1566 3.99219C29.2969 3.99219 37.5172 12.2124 37.5172 22.3527C37.5172 32.493 29.2969 40.7137 19.1566 40.7137C9.01673 40.7137 0.796478 32.493 0.796478 22.3527Z" fill="#FFFFFE"/>
<path fill-rule="evenodd" clip-rule="evenodd" d="M30.2604 21.9916C30.2531 17.2898 27.3141 13.2798 23.1728 11.6917V32.2908C27.3141 30.7006 30.2531 26.6943 30.2604 21.9916ZM15.2726 32.2868V11.6939C11.135 13.2869 8.20051 17.2911 8.18943 21.9918C8.20051 26.6912 11.135 30.695 15.2726 32.2868ZM19.2248 4.58066C9.60933 4.58435 1.81913 12.3762 1.81749 21.9916C1.81913 31.6059 9.60933 39.3965 19.2248 39.3981C28.8402 39.3965 36.6321 31.6059 36.6345 21.9916C36.6321 12.3762 28.8402 4.58435 19.2248 4.58066ZM19.1821 41.0412C8.66015 41.0913 0 32.567 0 22.1903C0 10.8497 8.66015 3.00576 19.1821 3.00781H24.1129C34.5105 3.00576 44 10.846 44 22.1903C44 32.5633 34.5105 41.0412 24.1129 41.0412H19.1821Z" fill="#0069AA"/>
</svg>
