<svg width="44" height="44" viewBox="0 0 44 44" fill="none" xmlns="http://www.w3.org/2000/svg">
<path d="M8.00418 38.9297V36.6637C8.01748 36.4731 7.98997 36.2819 7.92353 36.1028C7.85708 35.9237 7.75321 35.7608 7.61883 35.625C7.48446 35.4892 7.32267 35.3836 7.14427 35.3152C6.96586 35.2469 6.77494 35.2174 6.58423 35.2287C6.33464 35.2124 6.08524 35.2634 5.86206 35.3763C5.63888 35.4892 5.45007 35.6599 5.31531 35.8706C5.1925 35.6662 5.01684 35.4987 4.80681 35.3857C4.59679 35.2727 4.36019 35.2185 4.12192 35.2287C3.91423 35.2182 3.7074 35.2622 3.52193 35.3563C3.33647 35.4503 3.17878 35.5912 3.06449 35.7649V35.3193H2.27893V38.9297H3.072V36.9281C3.05485 36.8046 3.06528 36.6788 3.10251 36.5598C3.13975 36.4408 3.20288 36.3315 3.28737 36.2398C3.37186 36.1481 3.4756 36.0762 3.59116 36.0294C3.70672 35.9825 3.83123 35.9619 3.95573 35.9689C4.47689 35.9689 4.74129 36.3087 4.74129 36.9205V38.9297H5.53436V36.9281C5.5185 36.8048 5.52982 36.6795 5.56753 36.5611C5.60524 36.4427 5.66843 36.3339 5.75265 36.2425C5.83687 36.1511 5.94008 36.0792 6.05504 36.0319C6.17 35.9847 6.29391 35.9631 6.41807 35.9689C6.95431 35.9689 7.21111 36.3087 7.21111 36.9205V38.9297H8.00418ZM19.7417 35.3193H18.4577V34.2241H17.6646V35.3193H16.9319V36.0368H17.6646V37.6834C17.6646 38.5218 17.9894 39.0203 18.9184 39.0203C19.2655 39.0214 19.6058 38.9245 19.9003 38.7408L19.6738 38.0686C19.4631 38.1943 19.224 38.2644 18.9789 38.2726C18.5861 38.2726 18.4577 38.0308 18.4577 37.6683V36.0368H19.7417V35.3193ZM26.4413 35.2287C26.2498 35.223 26.0603 35.2691 25.8928 35.3622C25.7253 35.4552 25.586 35.5918 25.4897 35.7574V35.3193H24.7116V38.9297H25.4972V36.9054C25.4972 36.3087 25.754 35.9764 26.2676 35.9764C26.4356 35.9741 26.6025 36.0049 26.7586 36.067L27.0002 35.3268C26.8209 35.2626 26.6318 35.2294 26.4413 35.2287ZM16.3126 35.6063C15.868 35.3419 15.3568 35.2108 14.8398 35.2287C13.9258 35.2287 13.3367 35.6667 13.3367 36.3843C13.3367 36.9734 13.7748 37.336 14.5829 37.4493L14.953 37.5021C15.3835 37.5625 15.5875 37.6758 15.5875 37.8797C15.5875 38.1592 15.3004 38.3179 14.7642 38.3179C14.3329 38.3303 13.9099 38.1972 13.5633 37.9402L13.1932 38.552C13.6507 38.8715 14.1988 39.0357 14.7567 39.0203C15.799 39.0203 16.4032 38.5293 16.4032 37.842C16.4032 37.2075 15.9274 36.8752 15.1419 36.7619L14.7718 36.709C14.4319 36.6637 14.16 36.5958 14.16 36.3541C14.16 36.0897 14.4167 35.9311 14.8473 35.9311C15.2427 35.9371 15.63 36.0436 15.9727 36.2408L16.3126 35.6063ZM37.3555 35.2287C37.164 35.223 36.9745 35.2691 36.807 35.3622C36.6395 35.4552 36.5002 35.5918 36.4039 35.7574V35.3193H35.6259V38.9297H36.4114V36.9054C36.4114 36.3087 36.6682 35.9764 37.1818 35.9764C37.3498 35.9741 37.5167 36.0049 37.6728 36.067L37.9145 35.3268C37.7351 35.2626 37.5461 35.2294 37.3555 35.2287ZM27.2344 37.1244C27.2239 37.3788 27.2668 37.6325 27.3604 37.8692C27.4539 38.106 27.5959 38.3206 27.7773 38.4992C27.9587 38.6777 28.1755 38.8164 28.4137 38.9061C28.6519 38.9959 28.9063 39.0348 29.1605 39.0203C29.6321 39.044 30.0955 38.8904 30.4595 38.5898L30.0819 37.9553C29.8103 38.1623 29.4792 38.2762 29.1378 38.2801C28.8434 38.2622 28.567 38.1327 28.3648 37.9179C28.1627 37.7032 28.0502 37.4194 28.0502 37.1245C28.0502 36.8296 28.1627 36.5458 28.3648 36.331C28.567 36.1162 28.8434 35.9867 29.1378 35.9689C29.4792 35.9727 29.8104 36.0866 30.0819 36.2937L30.4595 35.6592C30.0954 35.3585 29.632 35.205 29.1605 35.2287C28.9063 35.2142 28.652 35.2531 28.4138 35.3429C28.1756 35.4326 27.9588 35.5712 27.7774 35.7498C27.5959 35.9283 27.4539 36.1429 27.3604 36.3796C27.2669 36.6164 27.2239 36.8701 27.2344 37.1244ZM34.5911 37.1244V35.3193H33.8056V35.7574C33.6715 35.5846 33.498 35.4464 33.2996 35.3544C33.1011 35.2625 32.8836 35.2193 32.6651 35.2287C32.1783 35.2525 31.7194 35.4627 31.3834 35.8156C31.0473 36.1685 30.8599 36.6372 30.8599 37.1245C30.8599 37.6118 31.0473 38.0805 31.3834 38.4334C31.7194 38.7863 32.1783 38.9965 32.6651 39.0203C32.8836 39.0297 33.1011 38.9865 33.2996 38.8945C33.498 38.8025 33.6715 38.6643 33.8056 38.4915V38.9297H34.5911V37.1244ZM31.668 37.1244C31.6802 36.9114 31.7545 36.7065 31.8817 36.5352C32.0089 36.3639 32.1835 36.2335 32.3839 36.1602C32.5843 36.0869 32.8018 36.0738 33.0095 36.1226C33.2172 36.1714 33.4061 36.28 33.5529 36.4348C33.6997 36.5897 33.798 36.7842 33.8356 36.9943C33.8732 37.2043 33.8485 37.4208 33.7645 37.617C33.6806 37.8131 33.541 37.9805 33.3631 38.0983C33.1852 38.2161 32.9767 38.2793 32.7633 38.2801C32.6137 38.2821 32.4653 38.2531 32.3275 38.195C32.1897 38.1368 32.0654 38.0507 31.9625 37.9421C31.8596 37.8336 31.7803 37.7049 31.7297 37.5641C31.679 37.4234 31.658 37.2737 31.668 37.1244ZM22.1889 35.2287C21.6991 35.2544 21.2382 35.4689 20.9031 35.8272C20.568 36.1854 20.3846 36.6594 20.3914 37.1499C20.3983 37.6404 20.5948 38.1092 20.9398 38.4579C21.2848 38.8067 21.7514 39.0082 22.2418 39.0203C22.7807 39.0392 23.3077 38.8591 23.7222 38.5142L23.337 37.9327C23.0387 38.1717 22.6693 38.3046 22.2871 38.3103C22.0275 38.3321 21.7697 38.2521 21.5681 38.0871C21.3665 37.9222 21.237 37.6853 21.207 37.4265H23.8884C23.896 37.3284 23.9035 37.2302 23.9035 37.1244C23.896 35.9991 23.2011 35.2287 22.1889 35.2287ZM22.1738 35.9311C22.4111 35.9265 22.6405 36.0161 22.8118 36.1803C22.9831 36.3446 23.0823 36.57 23.0877 36.8072H21.2146C21.2284 36.5649 21.3364 36.3375 21.5157 36.1738C21.695 36.01 21.9312 35.9229 22.1738 35.9311ZM41.8798 37.1244V33.8691H41.0943V35.7574C40.9602 35.5846 40.7867 35.4464 40.5883 35.3544C40.3899 35.2625 40.1723 35.2193 39.9538 35.2287C39.4671 35.2525 39.0081 35.4627 38.6721 35.8156C38.336 36.1685 38.1486 36.6372 38.1486 37.1245C38.1486 37.6118 38.336 38.0805 38.6721 38.4334C39.0081 38.7863 39.4671 38.9965 39.9538 39.0203C40.1723 39.0297 40.3899 38.9865 40.5883 38.8945C40.7867 38.8025 40.9602 38.6643 41.0943 38.4915V38.9297H41.8798V37.1244ZM43.1893 38.4064C43.2381 38.4061 43.2864 38.4157 43.3314 38.4346C43.3746 38.4527 43.414 38.4788 43.4475 38.5116C43.4807 38.5443 43.5072 38.5831 43.5257 38.6259C43.5446 38.6699 43.5543 38.7172 43.5543 38.7651C43.5543 38.813 43.5446 38.8603 43.5257 38.9043C43.5071 38.9469 43.4806 38.9856 43.4475 39.0182C43.4139 39.051 43.3746 39.0772 43.3314 39.0955C43.2865 39.1148 43.2381 39.1245 43.1893 39.1242C43.1174 39.1249 43.0469 39.1044 42.9866 39.0653C42.9263 39.0262 42.8789 38.9702 42.8503 38.9043C42.8314 38.8603 42.8217 38.813 42.8217 38.7651C42.8217 38.7172 42.8314 38.6699 42.8503 38.6259C42.8687 38.5832 42.8951 38.5443 42.9281 38.5116C42.9616 38.4785 43.0012 38.4524 43.0447 38.4346C43.0905 38.4157 43.1397 38.4061 43.1893 38.4064ZM43.1893 39.045C43.2265 39.0453 43.2634 39.0378 43.2975 39.023C43.3303 39.0088 43.3601 38.9885 43.3854 38.9632C43.4376 38.9105 43.4668 38.8394 43.4668 38.7653C43.4668 38.6912 43.4376 38.62 43.3854 38.5674C43.3602 38.5422 43.3304 38.522 43.2975 38.5081C43.2633 38.4935 43.2265 38.4862 43.1893 38.4865C43.1514 38.4862 43.1139 38.4935 43.0789 38.5081C43.0456 38.5218 43.0153 38.5419 42.9897 38.5674C42.9375 38.62 42.9082 38.6911 42.9082 38.7653C42.9082 38.8394 42.9375 38.9105 42.9897 38.9632C43.0153 38.9887 43.0456 39.009 43.0789 39.023C43.1138 39.0378 43.1514 39.0453 43.1893 39.045ZM43.2104 38.5973C43.2457 38.595 43.2807 38.6051 43.3094 38.6259C43.3208 38.6353 43.3299 38.6472 43.3359 38.6607C43.3419 38.6742 43.3447 38.689 43.3441 38.7037C43.3445 38.7164 43.3422 38.729 43.3375 38.7407C43.3327 38.7525 43.3255 38.7631 43.3164 38.7718C43.2945 38.7913 43.2668 38.8029 43.2377 38.8049L43.3467 38.9306H43.2615L43.1603 38.8057H43.1278V38.9306H43.0565V38.5973H43.2104ZM43.1278 38.6598V38.7486H43.2096C43.2253 38.7494 43.2409 38.7455 43.2544 38.7376C43.2599 38.7339 43.2644 38.7288 43.2673 38.7229C43.2702 38.717 43.2715 38.7103 43.2711 38.7037C43.2715 38.6973 43.2701 38.6908 43.2672 38.685C43.2643 38.6792 43.2599 38.6743 43.2544 38.6707C43.2409 38.6628 43.2253 38.659 43.2096 38.6598H43.1278ZM38.9568 37.1244C38.969 36.9114 39.0433 36.7066 39.1705 36.5352C39.2977 36.3639 39.4723 36.2336 39.6727 36.1603C39.8731 36.087 40.0905 36.0739 40.2983 36.1227C40.506 36.1715 40.6949 36.2801 40.8417 36.435C40.9885 36.5899 41.0867 36.7843 41.1243 36.9944C41.1619 37.2044 41.1371 37.4209 41.0532 37.617C40.9692 37.8132 40.8297 37.9805 40.6518 38.0983C40.4739 38.2162 40.2654 38.2793 40.052 38.2801C39.9024 38.2821 39.7541 38.2531 39.6162 38.1949C39.4784 38.1368 39.3542 38.0507 39.2513 37.9421C39.1484 37.8335 39.0691 37.7048 39.0184 37.5641C38.9677 37.4234 38.9468 37.2736 38.9568 37.1244ZM12.4303 37.1244V35.3193H11.6448V35.7574C11.5107 35.5846 11.3372 35.4464 11.1388 35.3544C10.9403 35.2625 10.7228 35.2193 10.5043 35.2287C10.0175 35.2525 9.55861 35.4627 9.22256 35.8156C8.88652 36.1685 8.69909 36.6372 8.69909 37.1245C8.69909 37.6118 8.88652 38.0805 9.22256 38.4334C9.55861 38.7863 10.0175 38.9965 10.5043 39.0203C10.7228 39.0297 10.9403 38.9865 11.1388 38.8945C11.3372 38.8025 11.5107 38.6643 11.6448 38.4915V38.9297H12.4303V37.1244ZM9.5073 37.1244C9.5195 36.9114 9.59378 36.7066 9.72099 36.5352C9.84819 36.3639 10.0228 36.2336 10.2232 36.1603C10.4236 36.087 10.641 36.0739 10.8488 36.1227C11.0565 36.1715 11.2454 36.2801 11.3922 36.435C11.5389 36.5899 11.6372 36.7843 11.6748 36.9944C11.7123 37.2044 11.6876 37.4209 11.6037 37.617C11.5197 37.8132 11.3802 37.9805 11.2022 38.0984C11.0243 38.2162 10.8158 38.2793 10.6025 38.2801C10.4529 38.2821 10.3045 38.2531 10.1667 38.1949C10.0289 38.1368 9.90464 38.0507 9.80176 37.9421C9.69887 37.8335 9.61958 37.7048 9.56891 37.5641C9.51823 37.4234 9.49725 37.2736 9.5073 37.1244Z" fill="#231F20"/>
<path d="M27.9493 7.80469H16.0515V29.1853H27.9493V7.80469Z" fill="#FF5F00"/>
<path d="M16.8068 18.4959C16.805 16.4368 17.2716 14.4042 18.1714 12.5521C19.0711 10.7 20.3805 9.07685 22.0003 7.80558C19.9944 6.22889 17.5853 5.24837 15.0485 4.9761C12.5117 4.70382 9.94947 5.15076 7.65467 6.26585C5.35986 7.38094 3.42507 9.11917 2.07145 11.2819C0.717834 13.4446 0 15.9445 0 18.4959C0 21.0473 0.717834 23.5472 2.07145 25.7099C3.42507 27.8726 5.35986 29.6108 7.65467 30.7259C9.94947 31.841 12.5117 32.288 15.0485 32.0157C17.5853 31.7434 19.9944 30.7629 22.0003 29.1862C20.3805 27.9149 19.0711 26.2918 18.1714 24.4397C17.2716 22.5875 16.805 20.555 16.8068 18.4959Z" fill="#EB001B"/>
<path d="M44 18.4959C44.0001 21.0472 43.2824 23.5471 41.9288 25.7098C40.5753 27.8725 38.6406 29.6108 36.3458 30.7259C34.051 31.841 31.4888 32.2879 28.952 32.0157C26.4153 31.7434 24.0063 30.7629 22.0004 29.1862C23.6188 27.9136 24.9271 26.2902 25.8268 24.4384C26.7264 22.5866 27.1938 20.5547 27.1938 18.4959C27.1938 16.4371 26.7264 14.4052 25.8268 12.5534C24.9271 10.7015 23.6188 9.07814 22.0004 7.80557C24.0063 6.22888 26.4153 5.24837 28.952 4.97609C31.4888 4.70382 34.051 5.15077 36.3458 6.26587C38.6406 7.38097 40.5753 9.11921 41.9288 11.2819C43.2824 13.4446 44.0001 15.9445 44 18.4959Z" fill="#F79E1B"/>
<path d="M42.7028 26.9204V26.4826H42.8793V26.3935H42.4298V26.4826H42.6064V26.9204H42.7028ZM43.5755 26.9204V26.3926H43.4377L43.2792 26.7556L43.1207 26.3926H42.9829V26.9204H43.0801V26.5223L43.2288 26.8655H43.3297L43.4783 26.5214V26.9204H43.5755Z" fill="#F79E1B"/>
</svg>
