<svg width="322" height="547" viewBox="0 0 322 547" fill="none" xmlns="http://www.w3.org/2000/svg">
<path d="M0.5 20C0.5 9.23046 9.23045 0.5 20 0.5H72.7831C77.6251 0.5 82.294 2.30143 85.8811 5.55375L114.806 31.7787C116.737 33.53 119.251 34.5 121.858 34.5H200.5C203.805 34.5 206.917 32.944 208.9 30.3L225.4 8.3C229.083 3.38979 234.862 0.5 241 0.5H302C312.77 0.5 321.5 9.23045 321.5 20V527C321.5 537.77 312.77 546.5 302 546.5H20C9.23045 546.5 0.5 537.77 0.5 527V20Z" fill="#260E00" stroke="#E7EAEA"/>
</svg>
